# xmcd
#
# Track frame offsets:
# 150
# 2226
# 26169
# 54151
# 78238
# 94083
# 102745
# 119997
# 132796
#
# Disc length: 2129 seconds
#
# Revision: 0
# Processed by: cddbd v1.4PL0 Copyright (c) Steve Scherf et al.
# Submitted via: Audion 3.0.2 (http://www.panic.com/audion/)
#
DISCID=75084f09
DTITLE=rantmusic - live
DYEAR=1900
DGENRE=
TTITLE0=intro
TTITLE1=instill
TTITLE2=samba
TTITLE3=planet
TTITLE4=dolly
TTITLE5=tricycle
TTITLE6=turkish
TTITLE7=merry
TTITLE8=bag
EXTD=
EXTT0=
EXTT1=
EXTT2=
EXTT3=
EXTT4=
EXTT5=
EXTT6=
EXTT7=
EXTT8=
PLAYORDER=
